<mxfile host="app.diagrams.net" modified="2023-04-28T09:19:55.012Z" agent="Mozilla/5.0 (Windows NT 10.0; Win64; x64; rv:109.0) Gecko/20100101 Firefox/112.0" etag="5DHbae7DGlnaCYFtmSDC" version="21.2.3" type="device">
  <diagram name="Sayfa -1" id="JVeX05MsqDKtN75pxBP6">
    <mxGraphModel dx="621" dy="561" grid="1" gridSize="10" guides="1" tooltips="1" connect="1" arrows="1" fold="1" page="1" pageScale="1" pageWidth="827" pageHeight="1169" math="0" shadow="0">
      <root>
        <mxCell id="0" />
        <mxCell id="1" parent="0" />
        <mxCell id="W5unSxkWkprsVRpUMuPj-1" value="" style="shape=ellipse;container=1;horizontal=1;horizontalStack=0;resizeParent=1;resizeParentMax=0;resizeLast=0;html=1;dashed=1;collapsible=0;" vertex="1" parent="1">
          <mxGeometry x="290" y="100" width="510" height="360" as="geometry" />
        </mxCell>
        <mxCell id="W5unSxkWkprsVRpUMuPj-2" value="&lt;b&gt;Application&lt;/b&gt;" style="html=1;strokeColor=none;fillColor=none;align=center;verticalAlign=middle;spacingLeft=4;spacingRight=4;rotatable=0;points=[[0,0.5],[1,0.5]];resizeWidth=1;whiteSpace=wrap;" vertex="1" parent="W5unSxkWkprsVRpUMuPj-1">
          <mxGeometry y="12.521739130434783" width="510" height="46.95652173913044" as="geometry" />
        </mxCell>
        <mxCell id="W5unSxkWkprsVRpUMuPj-3" value="" style="line;strokeWidth=1;fillColor=none;rotatable=0;labelPosition=right;points=[];portConstraint=eastwest;dashed=1;resizeWidth=1;" vertex="1" parent="W5unSxkWkprsVRpUMuPj-1">
          <mxGeometry x="73.66666666666667" y="46.95652173913044" width="362.6666666666667" height="12.521739130434783" as="geometry" />
        </mxCell>
        <mxCell id="W5unSxkWkprsVRpUMuPj-4" value=":ApplicationUI" style="html=1;align=center;verticalAlign=middle;rotatable=0;whiteSpace=wrap;" vertex="1" parent="W5unSxkWkprsVRpUMuPj-1">
          <mxGeometry width="100" height="30" relative="1" as="geometry">
            <mxPoint x="30" y="110" as="offset" />
          </mxGeometry>
        </mxCell>
        <mxCell id="W5unSxkWkprsVRpUMuPj-6" value="" style="edgeStyle=none;endArrow=none;verticalAlign=middle;labelBackgroundColor=none;endSize=12;html=1;align=left;endFill=0;spacingLeft=4;rounded=0;exitX=1;exitY=0.5;exitDx=0;exitDy=0;entryX=0;entryY=0.5;entryDx=0;entryDy=0;" edge="1" parent="W5unSxkWkprsVRpUMuPj-1" source="W5unSxkWkprsVRpUMuPj-4" target="W5unSxkWkprsVRpUMuPj-7">
          <mxGeometry x="0.5638" y="93" relative="1" as="geometry">
            <mxPoint x="315.4545454545455" y="220" as="targetPoint" />
            <mxPoint as="offset" />
          </mxGeometry>
        </mxCell>
        <mxCell id="W5unSxkWkprsVRpUMuPj-7" value=":Home(Muscles)" style="html=1;align=center;verticalAlign=middle;rotatable=0;whiteSpace=wrap;" vertex="1" parent="W5unSxkWkprsVRpUMuPj-1">
          <mxGeometry width="100" height="30" relative="1" as="geometry">
            <mxPoint x="370" y="110" as="offset" />
          </mxGeometry>
        </mxCell>
        <mxCell id="W5unSxkWkprsVRpUMuPj-11" value=":Handbook" style="html=1;align=center;verticalAlign=middle;rotatable=0;whiteSpace=wrap;" vertex="1" parent="W5unSxkWkprsVRpUMuPj-1">
          <mxGeometry x="30" y="230" width="100" height="30" as="geometry" />
        </mxCell>
        <mxCell id="W5unSxkWkprsVRpUMuPj-13" value=":ExerciseList" style="html=1;align=center;verticalAlign=middle;rotatable=0;whiteSpace=wrap;" vertex="1" parent="W5unSxkWkprsVRpUMuPj-1">
          <mxGeometry x="380" y="230" width="100" height="30" as="geometry" />
        </mxCell>
        <mxCell id="W5unSxkWkprsVRpUMuPj-12" value=":TrainingList" style="html=1;align=center;verticalAlign=middle;rotatable=0;whiteSpace=wrap;" vertex="1" parent="W5unSxkWkprsVRpUMuPj-1">
          <mxGeometry x="210" y="230" width="100" height="30" as="geometry" />
        </mxCell>
        <mxCell id="W5unSxkWkprsVRpUMuPj-14" value="" style="edgeStyle=none;endArrow=none;verticalAlign=middle;labelBackgroundColor=none;endSize=12;html=1;align=left;endFill=0;spacingLeft=4;rounded=0;exitX=0.5;exitY=0;exitDx=0;exitDy=0;entryX=0.5;entryY=1;entryDx=0;entryDy=0;" edge="1" parent="W5unSxkWkprsVRpUMuPj-1" source="W5unSxkWkprsVRpUMuPj-11" target="W5unSxkWkprsVRpUMuPj-7">
          <mxGeometry x="0.5638" y="93" relative="1" as="geometry">
            <mxPoint x="170" y="135" as="sourcePoint" />
            <mxPoint x="330" y="135" as="targetPoint" />
            <mxPoint as="offset" />
          </mxGeometry>
        </mxCell>
        <mxCell id="W5unSxkWkprsVRpUMuPj-15" value="" style="edgeStyle=none;endArrow=none;verticalAlign=middle;labelBackgroundColor=none;endSize=12;html=1;align=left;endFill=0;spacingLeft=4;rounded=0;exitX=0.5;exitY=0;exitDx=0;exitDy=0;entryX=0.5;entryY=1;entryDx=0;entryDy=0;" edge="1" parent="W5unSxkWkprsVRpUMuPj-1" source="W5unSxkWkprsVRpUMuPj-12" target="W5unSxkWkprsVRpUMuPj-7">
          <mxGeometry x="0.5638" y="93" relative="1" as="geometry">
            <mxPoint x="120" y="240" as="sourcePoint" />
            <mxPoint x="364" y="149" as="targetPoint" />
            <mxPoint as="offset" />
          </mxGeometry>
        </mxCell>
        <mxCell id="W5unSxkWkprsVRpUMuPj-16" value="" style="edgeStyle=none;endArrow=none;verticalAlign=middle;labelBackgroundColor=none;endSize=12;html=1;align=left;endFill=0;spacingLeft=4;rounded=0;exitX=0.4;exitY=0;exitDx=0;exitDy=0;entryX=0.5;entryY=1;entryDx=0;entryDy=0;exitPerimeter=0;" edge="1" parent="W5unSxkWkprsVRpUMuPj-1" source="W5unSxkWkprsVRpUMuPj-13" target="W5unSxkWkprsVRpUMuPj-7">
          <mxGeometry x="0.5638" y="93" relative="1" as="geometry">
            <mxPoint x="265" y="240" as="sourcePoint" />
            <mxPoint x="380" y="150" as="targetPoint" />
            <mxPoint as="offset" />
          </mxGeometry>
        </mxCell>
        <mxCell id="W5unSxkWkprsVRpUMuPj-17" value="" style="edgeStyle=none;endArrow=none;verticalAlign=middle;labelBackgroundColor=none;endSize=12;html=1;align=left;endFill=0;spacingLeft=4;rounded=0;exitX=1;exitY=0.5;exitDx=0;exitDy=0;entryX=0;entryY=0.5;entryDx=0;entryDy=0;" edge="1" parent="W5unSxkWkprsVRpUMuPj-1" source="W5unSxkWkprsVRpUMuPj-12">
          <mxGeometry x="0.5638" y="93" relative="1" as="geometry">
            <mxPoint x="170" y="244.5" as="sourcePoint" />
            <mxPoint x="380" y="244.5" as="targetPoint" />
            <mxPoint as="offset" />
          </mxGeometry>
        </mxCell>
        <mxCell id="W5unSxkWkprsVRpUMuPj-18" value="" style="edgeStyle=none;endArrow=none;verticalAlign=middle;labelBackgroundColor=none;endSize=12;html=1;align=left;endFill=0;spacingLeft=4;rounded=0;exitX=1;exitY=0.5;exitDx=0;exitDy=0;entryX=0;entryY=0.5;entryDx=0;entryDy=0;" edge="1" parent="W5unSxkWkprsVRpUMuPj-1" target="W5unSxkWkprsVRpUMuPj-12">
          <mxGeometry x="0.5638" y="93" relative="1" as="geometry">
            <mxPoint x="130" y="245" as="sourcePoint" />
            <mxPoint x="200" y="244.5" as="targetPoint" />
            <mxPoint as="offset" />
          </mxGeometry>
        </mxCell>
      </root>
    </mxGraphModel>
  </diagram>
</mxfile>
